<svg id="color" enable-background="new 0 0 24 24" height="512" viewBox="0 0 24 24" width="512" xmlns="http://www.w3.org/2000/svg"><path d="m21 1h-18c-1.654 0-3 1.346-3 3v16c0 1.654 1.346 3 3 3h18c1.654 0 3-1.346 3-3v-16c0-1.654-1.346-3-3-3z" fill="#607d8b"/><path d="m21 21h-18c-.551 0-1-.448-1-1v-14h20v14c0 .552-.449 1-1 1z" fill="#fff"/><path d="m12 1h-9c-1.654 0-3 1.346-3 3v16c0 1.654 1.346 3 3 3h9v-2h-9c-.551 0-1-.448-1-1v-14h10z" fill="#546d79"/><path d="m12 6h-10v14c0 .552.449 1 1 1h9z" fill="#dedede"/><path d="m15.25 20c-.14 0-.278-.039-.4-.115l-5.317-2.885h-2.283c-.689 0-1.25-.561-1.25-1.25v-3.5c0-.689.561-1.25 1.25-1.25h2.283l5.316-2.885c.23-.146.521-.155.763-.021.24.131.388.383.388.656v10.5c0 .273-.148.525-.388.656-.113.063-.238.094-.362.094z" fill="#2196f3"/><path d="m15.75 16.25c-.267 0-.517-.045-.764-.138-.388-.146-.584-.577-.438-.966v-2.293c-.146-.389.051-.82.438-.966.247-.093.497-.138.764-.138 1.24 0 2.25 1.01 2.25 2.25 0 1.241-1.01 2.251-2.25 2.251z" fill="#2196f3"/><path d="m6.75 20c-.192 0-.384-.073-.53-.22-.293-.293-.293-.768 0-1.061l10.5-10.5c.293-.293.768-.293 1.061 0s.293.768 0 1.061l-10.5 10.5c-.147.147-.339.22-.531.22z" fill="#f44336"/><path d="m10.939 14h-4.939v1.75c0 .689.561 1.25 1.25 1.25h.689zm3.609 0h-1.487l-3.185 3.186 4.975 2.699c.121.076.259.115.399.115.124 0 .249-.031.362-.094.24-.131.388-.383.388-.656v-3.014c-.082.009-.166.014-.25.014-.267 0-.517-.045-.764-.138-.388-.146-.584-.577-.438-.966z" fill="#1d83d4"/><path d="m18 14h-3.452v1.147c-.146.389.051.82.438.966.247.093.497.138.764.138.084 0 .168-.005.25-.014 1.123-.126 2-1.081 2-2.237z" fill="#1d83d4"/><path d="m13.061 14h-2.121l-3 3-1.72 1.72c-.293.293-.293.768 0 1.061.146.146.338.219.53.219s.384-.073.53-.22l2.595-2.595z" fill="#d43a2f"/></svg>