<svg height="512" viewBox="0 0 512 512" width="512" xmlns="http://www.w3.org/2000/svg"><g id="Flat"><rect fill="#348ed8" height="184" rx="24" width="272" x="120" y="256"/><path d="m304 488h-96l2.67-8 8-24 5.33-16h64l5.33 16 8 24z" fill="#d5d5d3"/><path d="m184 480h144v16h-144z" fill="#d5d5d3"/><path d="m120 400h272a0 0 0 0 1 0 0v16a24 24 0 0 1 -24 24h-224a24 24 0 0 1 -24-24v-16a0 0 0 0 1 0 0z" fill="#dfdfdd"/><path d="m293.33 456h-74.66l5.33-16h64z" fill="#cececc"/><path d="m416 168v24h-152v-24h-16v24h-152v-24h-16v32a8 8 0 0 0 8 8h160v24h16v-24h160a8 8 0 0 0 8-8v-32z" fill="#95c2da"/><g fill="#4db6e4"><path d="m240 312h32v56h-32z"/><path d="m168 336h32v32h-32z"/><path d="m312 288h32v80h-32z"/></g><rect fill="#348ed8" height="88" rx="16" width="128" x="24" y="24"/><path d="m112 144h-48l8-32h32z" fill="#d5d5d3"/><path d="m48 136h80v16h-80z" fill="#d5d5d3"/><path d="m48 72h16v16h-16z" fill="#4db6e4"/><path d="m80 64h16v24h-16z" fill="#4db6e4"/><path d="m112 48h16v40h-16z" fill="#4db6e4"/><path d="m108 128h-40l4-16h32z" fill="#cececc"/><rect fill="#348ed8" height="88" rx="16" width="128" x="192" y="24"/><path d="m280 144h-48l8-32h32z" fill="#d5d5d3"/><path d="m216 136h80v16h-80z" fill="#d5d5d3"/><path d="m216 72h16v16h-16z" fill="#4db6e4"/><path d="m248 64h16v24h-16z" fill="#4db6e4"/><path d="m280 48h16v40h-16z" fill="#4db6e4"/><path d="m276 128h-40l4-16h32z" fill="#cececc"/><rect fill="#348ed8" height="88" rx="16" width="128" x="360" y="24"/><path d="m448 144h-48l8-32h32z" fill="#d5d5d3"/><path d="m384 136h80v16h-80z" fill="#d5d5d3"/><path d="m384 72h16v16h-16z" fill="#4db6e4"/><path d="m416 64h16v24h-16z" fill="#4db6e4"/><path d="m448 48h16v40h-16z" fill="#4db6e4"/><path d="m444 128h-40l4-16h32z" fill="#cececc"/><path d="m144 360h224v16h-224z" fill="#2d7dbe"/></g></svg>